<svg width="125px" height="20px" viewBox="0 0 125 20" version="1.1" xmlns="http://www.w3.org/2000/svg" xmlns:xlink="http://www.w3.org/1999/xlink"><g fill="#ffffff" fill-rule="nonzero" stroke="none" stroke-width="1"><polygon id="M" points="9.99154096 6.7637107 16.7263499 1.26529898e-11 19.2774566 1.26529898e-11 19.9816721 0.704215424 19.9816721 19.2957846 19.2774566 20 16.0517412 20 15.3475257 19.2957846 15.3475257 7.93951783 10.9156915 12.3967292 9.07232483 12.3967292 4.63414634 7.94022275 4.63414634 19.2957846 3.93063584 20 0.704215424 20 0 19.2957846 0 0.704215424 0.704215424 1.26529898e-11 3.25179755 1.26529898e-11 9.99013112 6.76653038"></polygon><path d="M38.7024928,0.00466702215 C44.210931,-0.162545079 48.8284221,4.18426401 48.995387,9.6937969 C49.1616503,15.207563 44.8128464,19.8274146 39.3044083,19.9953323 C33.7896563,20.1625444 29.1707622,15.8164408 29.0044988,10.3040858 C28.84034,4.79173075 33.1891439,0.172584659 38.7024928,0.00466702215 Z M39.167919,15.4973802 C42.1950975,15.4051447 44.5877645,12.8636244 44.4975293,9.83426471 C44.4051455,6.80130209 41.864951,4.40966443 38.8377725,4.50262052 C35.8048647,4.59485602 33.4129138,7.13565578 33.502433,10.1671772 C33.5941005,13.1979781 36.1350112,15.5903363 39.167919,15.4973802 Z" id="O"></path><polygon id="V" points="77.2944331 0.000689655185 77.9992944 0.704224955 78 11.005589 69.0527058 20.0006897 66.9416496 20.0006897 58 11.0175731 58 0.704224955 58.7041558 0.000689655185 61.9335356 0.000689655185 62.638397 0.704224955 62.638397 9.10928646 68 14.4985924 73.3608975 9.11351613 73.3608975 0.704224955 74.0650533 0.000689655185"></polygon><polygon id="I" points="89.49 0.68742933 90.1739656 0.0027586207 93.3117459 0.0027586207 93.9971217 0.68742933 93.9971217 19.3180879 93.3117459 20.0027586 90.1739656 20.0027586 89.49 19.3180879"></polygon><path d="M114.702493,0.00466702215 C120.210931,-0.162545079 124.828422,4.18426401 124.995387,9.6937969 C125.16165,15.207563 120.812846,19.8274146 115.304408,19.9953323 C109.789656,20.1625444 105.170762,15.8164408 105.004499,10.3040858 C104.84034,4.79173075 109.189144,0.172584659 114.702493,0.00466702215 Z M115.167919,15.4973802 C118.195098,15.4051447 120.587765,12.8636244 120.497529,9.83426471 C120.405146,6.80130209 117.864951,4.40966443 114.837772,4.50262052 C111.804865,4.59485602 109.412914,7.13565578 109.502433,10.1671772 C109.594101,13.1979781 112.135011,15.5903363 115.167919,15.4973802 Z" id="O2"></path></g></svg>