<svg width="264" height="39" viewBox="0 0 264 39" fill="none" xmlns="http://www.w3.org/2000/svg">
<path d="M9 1H0V39H9V18.5C9 13.8055 12.5818 10 17 10C21.4182 10 25 13.8055 25 18.5V39H34C33.9975 32 34 24.9998 34 18C34 8.61121 26.3889 1 17 1C14.1079 1 11 2 9 4V1Z" fill="#FFFFFF"/>
<path d="M66.7353 39L76 39L76 0.999995L66.7353 0.999996L66.7353 21.5C66.7353 26.1945 63.0482 30 58.5 30C53.9518 30 50.2647 26.1945 50.2647 21.5L50.2647 0.999998L41 0.999999C41.0026 7.99997 41 15.0002 41 22C41 31.3888 48.8349 39 58.5 39C61.4772 39 64.6765 38 66.7353 36L66.7353 39Z" fill="#FFFFFF"/>
<path d="M86 1H95.1525V4C97.1864 2 100.347 1 103.288 1C108.315 1 112.841 3.10985 116 6.47814C119.159 3.10985 123.685 1 128.712 1C138.26 1 146 8.61121 146 18L145.999 18.1643C145.998 18.2765 145.996 18.3883 145.993 18.5H146V39H136.847V18.5C136.847 13.8055 133.205 10 128.712 10C124.219 10 120.576 13.8055 120.576 18.5V39H111.424V18.5C111.424 13.8055 107.781 10 103.288 10C98.795 10 95.1525 13.8055 95.1525 18.5V39H86V1Z" fill="#FFFFFF"/>
<path d="M191 19.0059C191 8.59064 184.74 0 171.796 0C157.922 0 152 9.88304 152 19.6901C152 29.7252 158.145 39 172.526 39C179.548 39 184.993 36.7953 189.562 32.2339L182.54 26.6842C179.664 29.6491 176.249 30.7135 172.526 30.7135C165.928 30.7135 162.686 27.3665 162.263 22.425H190.746C190.915 21.2086 191 20.1462 191 19.0059ZM162.067 15.2807C162.659 11.5556 165.536 7.60234 171.712 7.60234C177.041 7.60234 181.102 10.4912 181.271 15.2807H162.067Z" fill="#FFFFFF"/>
<path d="M225 4.13088C222.207 2.15921 218.792 1 215.106 1C212.196 1 209.068 2 207.056 4V1H198V39H207.056V18.5C207.056 13.8055 210.66 10 215.106 10C217.148 10 219.012 10.8029 220.431 12.126C221.441 9.16636 223.005 6.4607 225 4.13088Z" fill="#FFFFFF"/>
<path fill-rule="evenodd" clip-rule="evenodd" d="M245 39C255.493 39 264 30.4934 264 20C264 9.50659 255.493 1 245 1C234.507 1 226 9.50659 226 20C226 30.4934 234.507 39 245 39ZM245 30C250.523 30 255 25.5228 255 20C255 14.4772 250.523 10 245 10C239.477 10 235 14.4772 235 20C235 25.5228 239.477 30 245 30Z" fill="#FFFFFF"/>
</svg>
